<?xml version="1.0" encoding="UTF-8" standalone="no"?>
<!-- Created with Inkscape (http://www.inkscape.org/) -->

<svg
   width="39.818089mm"
   height="27.246284mm"
   viewBox="0 0 150.49357 102.97808"
   version="1.1"
   id="svg1"
   xmlns:inkscape="http://www.inkscape.org/namespaces/inkscape"
   xmlns:sodipodi="http://sodipodi.sourceforge.net/DTD/sodipodi-0.dtd"
   xmlns="http://www.w3.org/2000/svg"
   xmlns:svg="http://www.w3.org/2000/svg">
  <sodipodi:namedview
     id="namedview1"
     pagecolor="#505050"
     bordercolor="#eeeeee"
     borderopacity="1"
     inkscape:showpageshadow="0"
     inkscape:pageopacity="0"
     inkscape:pagecheckerboard="0"
     inkscape:deskcolor="#505050"
     inkscape:document-units="mm" />
  <defs
     id="defs1" />
  <g
     inkscape:label="Capa 1"
     inkscape:groupmode="layer"
     id="layer1"
     transform="translate(-321.49665,-509.50124)">
    <path
       style="fill:#ffffff;fill-opacity:0.978495;stroke:#000000;stroke-width:0;stroke-dasharray:none;stroke-opacity:1"
       d="m 425.37861,556.90677 c 4.56015,11.24546 12.38045,15.3995 24.7725,14.04628 8.87406,-2.37003 18.34575,-5.11642 21.61209,-21.70786 0.31748,-4.34694 2.28401,-16.04163 -14.97203,-27.32635 -6.45388,-2.77199 -11.50908,-6.29711 -30.77409,-2.1708 -3.90035,-2.96186 -7.47273,-6.06428 -13.66318,-8.04466 -5.07541,-1.68697 -13.95753,-3.26005 -24.00635,-1.27694 -7.86569,1.75617 -16.04493,5.53101 -20.4309,10.98162 -7.17042,-2.45588 -16.58083,-3.28879 -22.85709,-1.27694 -9.08501,1.79667 -17.07673,7.51571 -22.09094,18.13245 -4.21464,13.31078 1.70842,22.42266 4.21388,25.53865 6.65936,8.81711 15.45253,9.68776 25.02788,9.96007 4.79541,-0.34204 16.98313,-3.12472 23.87864,-17.62167 2.85121,4.69248 8.2178,7.9053 16.8555,9.19393 6.09702,0.56104 14.16121,0.0556 18.77091,-1.14924 4.06601,-1.17702 9.21766,-4.22649 13.66318,-7.27854 z"
       id="path1"
       sodipodi:nodetypes="cccccccccccccccc" />
    <path
       style="fill:#ffffff;fill-opacity:0.978495;stroke:#000000;stroke-width:0;stroke-dasharray:none;stroke-opacity:1"
       d="m 350.93344,579.12541 c 11.48776,-1.38875 20.30556,-5.89248 25.66636,-14.42933 5.4263,2.9625 11.66993,5.40491 20.81401,6.00158 10.62848,0.0189 18.2132,-2.58772 25.79403,-5.61849 4.14584,5.27607 7.56865,11.02375 19.28167,11.3647 l -0.31667,21.3783 c -6.78661,-1.64515 -14.68646,-2.99048 -25.34968,-4.52278 -9.65054,-1.06821 -20.32661,-1.89774 -36.39255,-0.25512 -15.47307,2.68018 -20.3494,3.74533 -29.24178,6.76774 z"
       id="path2"
       sodipodi:nodetypes="cccccccccc" />
    <path
       style="fill:#ffffff;fill-opacity:0.978495;stroke:#000000;stroke-width:0;stroke-dasharray:none;stroke-opacity:1"
       d="m 352.97232,612.47932 c 33.12827,-1.88439 60.28092,-2.60118 86.81559,-1.10683 5.48387,0.78754 5.9608,-3.99315 4.13816,-5.78264 -4.67652,-3.84907 -11.36787,-6.81014 -45.36302,-7.69353 -17.5677,0.9425 -37.81442,1.66152 -47.00709,9.03432 -3.29879,2.97154 -2.55243,5.47623 1.41636,5.54868 z"
       id="path3"
       sodipodi:nodetypes="cccccc" />
  </g>
</svg>
