<?xml version="1.0" encoding="UTF-8" standalone="no"?>
<!-- Created with Inkscape (http://www.inkscape.org/) -->

<svg
   width="170.10965mm"
   height="104.58903mm"
   
   viewBox="0 0 170.10965 104.58903"
   version="1.1"
   id="svg1"
   xml:space="preserve"
   xmlns="http://www.w3.org/2000/svg"
   xmlns:svg="http://www.w3.org/2000/svg"><defs
     id="defs1" /><g
     id="layer1"
     style="stroke-width:0;stroke-dasharray:none"
     transform="translate(-20.477906,-88.125257)"><g
       id="g20"
       style="stroke-width:0;stroke-dasharray:none"><path
         style="fill:#ffffff;fill-opacity:1;stroke:#000000;stroke-width:0;stroke-dasharray:none"
         d="m 149.79352,135.76235 c 0.14906,1.74768 1.11145,2.43803 2.53233,2.53234 1.31311,-0.21692 2.32962,-0.88685 2.05454,-3.01014 l -3.29682,-25.37114 c -0.21524,-1.87381 0.42227,-3.56854 1.00338,-4.44352 1.01029,-1.30598 1.44198,-2.61197 1.4334,-3.91795 l -2.05454,-12.852807 c -0.0639,-0.316246 -0.16226,-0.587352 -0.4778,-0.573358 -0.35075,0.0011 -0.47676,0.206534 -0.47779,0.525579 l 0.62113,11.801646 c -0.0397,0.35142 0.12744,0.78041 -0.38224,0.95559 -0.52292,-0.0319 -0.52141,-0.51322 -0.62113,-0.90781 L 148.8857,88.938033 c -0.0474,-0.35079 -0.14658,-0.59985 -0.43002,-0.57336 -0.35409,0.03743 -0.45605,0.314978 -0.4778,0.668919 l 0.76448,11.562748 c 0.0501,0.54329 0.21011,1.1721 -0.28668,1.29005 -0.53791,0.10305 -0.66423,-0.49949 -0.76448,-1.14671 l -1.05116,-11.514968 c -0.0777,-0.323891 -0.16399,-0.67499 -0.53752,-0.692809 -0.41481,0.106846 -0.44534,0.460942 -0.436,0.740588 l 0.49572,11.228289 c 0.0335,0.5868 0.19479,1.338 -0.19112,1.38561 -0.55485,0.15411 -0.69474,-0.52171 -0.81226,-1.24227 l -0.90781,-11.037168 c -0.055,-0.157893 -0.0571,-0.480335 -0.39913,-0.517382 -0.37404,-0.03709 -0.3229,0.411725 -0.40733,0.705602 l -0.14916,11.900108 c 0.20214,1.36969 0.48679,2.73938 1.81563,4.10907 1.23874,1.07097 2.35673,2.1661 2.34122,3.48792 z"
         id="path12" /><g
         id="g18"
         style="stroke-width:0;stroke-dasharray:none"><g
           id="g19"
           style="stroke-width:0;stroke-dasharray:none"><path
             style="fill:#e89925;fill-opacity:1;stroke:#000000;stroke-width:0;stroke-dasharray:none"
             d="m 171.19546,146.111 -4.41964,-2.24565 4.41964,-23.98552 c 0.73671,-3.94518 -0.53548,-5.82716 -2.1262,-7.382 -2.0351,-2.25457 -3.09464,-5.50071 -1.26617,-11.68219 2.96904,-7.342204 6.03012,-9.529544 9.12596,-9.770997 3.87379,0.547751 5.1711,4.068355 5.75748,8.409265 0.84034,6.360822 -0.246,10.188062 -3.63127,13.320702 -2.21979,1.64951 -4.05275,3.64712 -4.25241,6.93799 z"
             id="path17" /><path
             style="fill:#ffffff;fill-opacity:1;stroke:#000000;stroke-width:0;stroke-dasharray:none"
             d="m 172.91422,115.03965 c 0.72838,-0.86203 -6.49877,-5.71769 -0.74327,-11.52086 2.63857,-2.39216 5.88533,-3.567953 7.80445,-7.399023 1.72745,4.064973 1.74017,7.827343 0.40542,11.351933 -1.09021,2.72516 -5.18566,3.77419 -7.4666,7.56795 z"
             id="path18" /></g><g
           id="g16"
           style="stroke-width:0;stroke-dasharray:none"><path
             style="fill:#e79926;fill-opacity:0.992157;stroke:#000000;stroke-width:0;stroke-dasharray:none"
             d="M 162.16506,129.57915 158.7249,99.095559 c 8.9e-4,-2.548757 0.27713,-4.946737 3.53572,-7.358108 l 6.02027,37.602799 z"
             id="path14" /><path
             style="fill:#ffffff;fill-opacity:0.992157;stroke:#000000;stroke-width:0;stroke-dasharray:none"
             d="m 162.59508,131.29923 5.63803,-1.05116 1.62451,18.34749 -4.73021,0.86004 z"
             id="path16" /></g></g></g><g
       id="g4"
       style="fill:#ffffff;fill-opacity:1;stroke-width:0;stroke-dasharray:none"><path
         style="fill:#ffffff;fill-opacity:1;stroke:#000000;stroke-width:0;stroke-dasharray:none;stroke-opacity:1"
         d="m 112.77602,101.55923 c 1.20654,2.97536 3.27566,4.07445 6.55439,3.71641 2.34793,-0.62707 4.85398,-1.35372 5.7182,-5.743536 0.084,-1.15013 0.60431,-4.244349 -3.96135,-7.230098 -1.70759,-0.733423 -3.04511,-1.666109 -8.14231,-0.574356 -1.03197,-0.783659 -1.97716,-1.604508 -3.61505,-2.128484 -1.34287,-0.446344 -3.69293,-0.862554 -6.35168,-0.337856 -2.08113,0.464652 -4.245221,1.463412 -5.405677,2.905552 -1.897173,-0.649785 -4.387011,-0.870158 -6.047605,-0.337856 -2.40374,0.475369 -4.518218,1.988531 -5.844892,4.797543 -1.115125,3.521811 0.452018,5.932661 1.114921,6.757101 1.761957,2.33286 4.088482,2.56322 6.621959,2.63527 1.268786,-0.0905 4.493454,-0.82675 6.31789,-4.6624 0.754384,1.24155 2.174294,2.09161 4.459684,2.43256 1.61317,0.14844 3.74682,0.0147 4.96647,-0.30407 1.0758,-0.31142 2.43884,-1.11826 3.61505,-1.92578 z"
         id="path1" /><path
         style="fill:#ffffff;fill-opacity:1;stroke:#000000;stroke-width:0;stroke-dasharray:none;stroke-opacity:1"
         d="m 93.079071,107.43791 c 3.039469,-0.36744 5.37251,-1.55905 6.790889,-3.81776 1.43571,0.78383 3.08767,1.43005 5.50704,1.58792 2.81212,0.005 4.81891,-0.68467 6.82467,-1.48656 1.09692,1.39596 2.00254,2.9167 5.10161,3.00691 l 0.10136,5.50703 c -2.02855,-0.40542 -4.07094,-0.64192 -6.89225,-1.04734 -2.55337,-0.28263 -5.37808,-0.50211 -9.62886,-0.0675 -4.093918,0.70913 -5.384113,0.99095 -7.736887,1.79063 z"
         id="path2" /><path
         style="fill:#ffffff;fill-opacity:1;stroke:#000000;stroke-width:0;stroke-dasharray:none;stroke-opacity:1"
         d="m 93.618523,116.2628 c 8.765187,-0.49858 15.949327,-0.68823 22.969957,-0.29285 1.45094,0.20837 1.57713,-1.05652 1.09489,-1.52999 -1.23733,-1.0184 -3.00775,-1.80185 -12.0023,-2.03558 -4.64812,0.24937 -10.005065,0.43961 -12.437293,2.39033 -0.872804,0.78622 -0.67533,1.44892 0.374746,1.46809 z"
         id="path3" /></g><g
       id="g10"
       style="fill:#ffffff;fill-opacity:1;stroke-width:0;stroke-dasharray:none"><path
         style="fill:#ffffff;fill-opacity:1;stroke:#000000;stroke-width:0;stroke-dasharray:none;stroke-opacity:1"
         d="m 64.260033,147.30481 c -0.31644,1.12399 -0.349705,2.42847 -2.635268,2.29742 -2.842945,-0.23759 -2.72262,-1.51978 -2.500127,-2.83799 l 6.01382,-29.25825 c -3.122747,0.57033 -6.107935,1.07188 -10.270794,2.16227 -1.348458,0.41194 -4.70846,1.39039 -6.554388,5.1354 -0.610914,1.80401 0.07803,2.58558 1.045652,2.71514 1.686156,0.0473 2.074837,-1.00247 3.008609,-1.56643 1.492691,-0.87799 2.430355,-0.14742 2.621275,0.0398 0.762867,0.75718 0.679891,2.3798 0.309616,3.19521 -0.185184,0.28557 -0.712936,2.18259 -4.620166,3.79243 -0.685957,0.21193 -2.523911,1.19638 -5.811107,-0.54057 -2.261281,-1.33955 -3.011177,-3.85916 -2.770414,-6.04761 0.113823,-2.26514 0.965907,-4.27696 1.951114,-5.6084 0.830073,-1.16282 2.457991,-3.09872 4.485027,-4.22318 2.366981,-1.35117 4.706613,-2.29252 6.790886,-2.87177 14.974459,-3.34417 18.390577,-3.08574 27.585866,-4.62861 1.199984,-0.0579 1.501574,0.28353 1.923619,0.57141 0.416932,0.4629 0.582873,0.97599 0.549468,1.52896 -0.115298,0.89129 -0.166857,1.77637 -2.078427,2.84291 -1.559518,0.60608 -8.239002,1.68025 -12.518338,2.44871 z"
         id="path4" /><path
         id="path6"
         style="fill:#ffffff;fill-opacity:1;stroke:#000000;stroke-width:0;stroke-dasharray:none;stroke-opacity:1"
         d="m 89.599182,122.47263 c -1.888044,0.15608 -2.296512,1.25373 -2.736784,2.33112 -0.619656,-0.68226 -1.295738,-1.16708 -2.042769,-1.40353 -1.734449,-0.66153 -3.843418,-0.57482 -6.403227,0.7953 -3.53268,2.30697 -5.407697,5.32438 -6.72362,8.58139 -1.111122,2.79706 -1.297455,5.43544 -1.114661,8.14265 0.357276,2.86407 1.932109,4.54334 3.175517,5.1015 2.432229,0.88254 4.890539,0.479 5.371765,0.33797 3.58688,-0.9506 5.561606,-3.58515 5.980513,-4.15582 0.357862,0.8725 0.70015,1.75232 1.891875,2.22983 1.161366,0.34449 2.568125,0.46412 4.222998,0.27027 0.689802,-0.0943 1.269571,-0.68359 1.689302,-1.99316 0.123622,-1.60993 -0.06789,-2.58969 -0.709517,-2.66909 -1.694118,0.20957 -3.128046,-0.14264 -2.601392,-4.72994 l 2.128552,-10.33839 c 0.48131,-2.26233 -0.858106,-2.33987 -2.128552,-2.5001 z m -6.779948,5.62756 c 0.108206,1.1e-4 0.214393,0.005 0.318327,0.0145 1.895112,0.33558 2.251688,1.92994 1.968355,3.68246 -0.371599,2.5413 -1.014255,5.06845 -2.39882,6.72362 -1.509492,1.71963 -2.61893,2.51567 -4.172872,2.65204 -2.39269,-0.10267 -2.617899,-1.68697 -2.71973,-3.22668 0.0726,-2.29859 0.858109,-4.51335 1.824695,-6.19962 1.48781,-2.56308 3.556963,-3.64788 5.180045,-3.64629 z" /><path
         style="fill:#ffffff;fill-opacity:1;stroke:#000000;stroke-width:0;stroke-dasharray:none;stroke-opacity:1"
         d="m 107.52872,123.75 c -0.36827,-0.27689 -1.85243,-0.74432 -3.63128,0.35835 -0.6248,0.80644 -0.32228,1.20907 -0.0717,1.69618 1.34317,1.3616 3.22138,1.56222 4.80188,2.31733 2.32528,1.1217 3.08176,2.69162 3.53572,4.34798 0.1974,1.70479 -0.0952,2.94084 -0.5445,4.06584 -0.43179,1.07659 -1.12312,2.34509 -3.22652,4.02892 -0.35011,0.32552 -1.85986,1.30682 -4.70463,1.8582 -1.48855,0.3432 -3.49874,0.54439 -5.16918,0.16893 -0.863385,-0.16556 -3.800983,-1.32196 -4.22319,-3.98669 -0.08363,-2.12955 0.488489,-3.85074 1.064245,-4.98336 0.420974,-0.85997 0.943052,-1.99899 2.390323,-2.39876 2.577832,-0.58645 3.364512,0.14881 3.893782,1.16559 0.65531,1.78976 0.006,2.25496 -0.82775,2.53391 -1.591756,0.26555 -1.65573,1.69728 -1.300738,2.1116 0.709648,0.96959 2.130208,0.90326 3.615048,0.74328 1.87339,-0.44022 3.01407,-1.14213 3.31098,-2.14538 0.43094,-1.57378 0.0432,-2.39188 -0.6926,-2.88866 -2.55121,-1.40605 -4.07882,-2.31735 -5.28743,-3.07448 -1.366568,-0.82881 -2.401514,-1.97393 -2.314312,-4.18941 0.02873,-1.78339 0.573793,-3.17461 1.706168,-4.07959 0.807104,-0.71431 2.153884,-1.914 4.966474,-2.4748 1.9448,-0.34436 3.64631,-0.16158 5.18607,0.37165 1.93287,0.87433 2.03316,1.93193 2.46634,2.95623 0.40021,1.35293 0.2141,2.55928 -1.18249,3.46301 -1.69468,0.44602 -3.24714,0.71066 -3.41234,-0.79396 0.0122,-0.61521 -0.12436,-0.92362 -0.34837,-1.17191 z"
         id="path7" /><path
         style="fill:#ffffff;fill-opacity:1;stroke:#000000;stroke-width:0;stroke-dasharray:none;stroke-opacity:1"
         d="m 123.41554,119.97539 c -0.65475,3.43312 -1.38573,6.56133 -1.95898,10.32046 -0.65397,3.32265 0.005,4.01928 0.86004,4.32408 0.86631,0.19781 1.85846,0.24684 2.07843,1.50507 0.028,1.12444 -0.25827,2.63876 -1.79175,3.06986 -2.08832,0.28485 -4.26574,-0.33721 -5.37524,-1.46923 -1.14845,-0.9303 -1.61058,-2.97864 -0.78837,-7.11921 0.64487,-3.19385 1.11025,-7.01591 1.93509,-9.57988 -1.31175,0.14018 -2.25784,0.20556 -2.58012,0.14334 -0.49103,-0.1655 -0.99819,-0.28421 -1.05116,-1.72007 0.0413,-1.58957 0.59626,-2.53443 1.69619,-2.79513 1.3347,-0.12037 2.16547,-0.27547 3.05382,-0.31082 0.32045,-2.06037 0.33511,-3.47861 1.05526,-6.37837 0.35329,-1.35336 1.53389,-1.40046 2.72345,-1.4334 2.49039,0.10381 2.12257,0.67984 2.12621,1.1945 -0.24472,1.86887 -0.78717,4.12707 -0.73384,5.60619 1.73181,-0.11752 2.40914,-0.31907 2.78692,-0.19837 1.07438,0.38993 1.17345,0.99452 1.0893,1.89696 -0.0577,1.50942 -0.73212,2.01041 -1.15542,2.34602 -0.37744,0.32252 -1.04736,0.50071 -3.96983,0.598 z"
         id="path8" /><path
         id="path10-7"
         style="fill:#ffffff;fill-opacity:1;stroke:#000000;stroke-width:0;stroke-dasharray:none;stroke-opacity:1"
         d="m 143.05896,113.10943 c -1.7126,-0.009 -2.12532,0.96636 -2.42672,2.02623 -0.96291,4.64166 -1.15304,13.0357 -5.40536,16.2848 -0.81081,0.34147 -3.23391,1.74552 -2.97346,-1.62161 0.59027,-4.49567 1.66335,-8.83082 2.50062,-13.24415 0.20468,-1.47354 -0.36319,-2.30935 -1.95957,-2.29702 -1.79487,-0.0391 -2.42742,0.90544 -2.77089,2.09445 -0.92713,4.36342 -2.24165,8.07433 -2.77037,13.10876 -0.53913,3.76595 -0.0474,6.32091 1.95957,7.09517 3.9116,0.99705 5.73769,-0.28432 7.63571,-1.48673 -0.16087,1.2002 -0.26323,2.48793 -0.54054,3.51348 -2.64837,0.74471 -5.32998,1.44137 -7.29774,3.17603 -2.34764,2.11143 -2.79783,3.91491 -3.04064,5.81102 0.024,3.37926 2.23409,4.61602 3.24321,5.00021 2.28333,0.64619 5.02186,0.77334 8.44651,-2.22984 2.88917,-2.80284 3.13611,-7.72736 3.24321,-8.17573 1.50909,-8.96441 3.57933,-19.37171 4.52738,-26.89344 0.22275,-1.71195 -0.58114,-2.01901 -1.55391,-2.09497 -0.3012,-0.0442 -0.57235,-0.0653 -0.81701,-0.0667 z m -7.61865,30.30875 c -0.30768,1.14806 -0.16915,3.19916 -2.03089,4.18062 -0.60036,0.17353 -2.45708,0.58851 -2.24586,-0.90796 0.19655,-0.79394 0.39021,-1.29944 1.67225,-2.31717 0.8184,-0.56656 1.72855,-0.67668 2.6045,-0.95549 z" /></g><g
       id="g9"
       style="fill:#ffffff;fill-opacity:1;stroke-width:0;stroke-dasharray:none"><title
         id="title9">Repository</title><path
         id="path10"
         style="fill:#ffffff;fill-opacity:1;stroke:#000000;stroke-width:0;stroke-dasharray:none;stroke-opacity:1"
         d="m 188.17921,140.48083 c -1.7126,-0.009 -2.12532,0.96636 -2.42672,2.02623 -0.96291,4.64166 -1.15304,13.0357 -5.40536,16.2848 -0.81081,0.34147 -3.23391,1.74552 -2.97346,-1.62161 0.59027,-4.49567 1.66335,-8.83082 2.50062,-13.24415 0.20468,-1.47354 -0.36319,-2.30935 -1.95957,-2.29702 -1.79487,-0.0391 -2.42742,0.90544 -2.77089,2.09445 -0.92713,4.36342 -2.24165,8.07433 -2.77037,13.10876 -0.53913,3.76595 -0.0474,6.32091 1.95957,7.09517 3.9116,0.99705 5.73769,-0.28432 7.63571,-1.48673 -0.16087,1.2002 -0.26323,2.48793 -0.54054,3.51348 -2.64837,0.74471 -5.32998,1.44137 -7.29774,3.17603 -2.34764,2.11143 -2.79783,3.91491 -3.04064,5.81102 0.024,3.37926 2.23409,4.61602 3.24321,5.00021 2.28333,0.64619 5.02186,0.77334 8.44651,-2.22984 2.88917,-2.80284 3.13611,-7.72736 3.24321,-8.17573 1.50909,-8.96441 3.57933,-19.37171 4.52738,-26.89344 0.22275,-1.71195 -0.58114,-2.01901 -1.55391,-2.09497 -0.3012,-0.0442 -0.57235,-0.0653 -0.81701,-0.0667 z m -7.61865,30.30875 c -0.30768,1.14806 -0.16915,3.19916 -2.03089,4.18062 -0.60036,0.17353 -2.45708,0.58851 -2.24586,-0.90796 0.19655,-0.79394 0.39021,-1.29944 1.67225,-2.31717 0.8184,-0.56656 1.72855,-0.67668 2.6045,-0.95549 z" /><path
         style="fill:#ffffff;fill-opacity:1;stroke:#000000;stroke-width:0;stroke-dasharray:none;stroke-opacity:1"
         d="m 139.17656,151.82637 c -0.65475,3.43312 -1.38573,6.56133 -1.95898,10.32046 -0.65397,3.32265 0.005,4.01928 0.86004,4.32408 0.86631,0.19781 1.85846,0.24684 2.07843,1.50507 0.028,1.12444 -0.25827,2.63876 -1.79175,3.06986 -2.08832,0.28485 -4.26574,-0.33721 -5.37524,-1.46923 -1.14845,-0.9303 -1.61058,-2.97864 -0.78837,-7.11921 0.64487,-3.19385 1.11025,-7.01591 1.93509,-9.57988 -1.31175,0.14018 -2.25784,0.20556 -2.58012,0.14334 -0.49103,-0.1655 -0.99819,-0.28421 -1.05116,-1.72007 0.0413,-1.58957 0.59626,-2.53443 1.69619,-2.79513 1.3347,-0.12037 2.16547,-0.27547 3.05382,-0.31082 0.32045,-2.06037 0.33511,-3.47861 1.05526,-6.37837 0.35329,-1.35336 1.53389,-1.40046 2.72345,-1.4334 2.49039,0.10381 2.12257,0.67984 2.12621,1.1945 -0.24472,1.86887 -0.78717,4.12707 -0.73384,5.60619 1.73181,-0.11752 2.40914,-0.31907 2.78692,-0.19837 1.07438,0.38993 1.17345,0.99452 1.0893,1.89696 -0.0577,1.50942 -0.73212,2.01041 -1.15542,2.34602 -0.37744,0.32252 -1.04736,0.50071 -3.96983,0.598 z"
         id="path8-0" /><path
         style="fill:#ffffff;fill-opacity:1;stroke:#000000;stroke-width:0;stroke-dasharray:none;stroke-opacity:1"
         d="m 25.721018,160.94221 c 0.0827,2.00298 1.233383,2.28166 2.929092,2.03908 1.42015,-0.26528 2.33002,0.041 2.162272,1.55413 -0.299641,1.51395 -1.519263,2.44588 -3.378551,2.97312 -2.781467,0.56909 -4.836568,-0.29805 -6.216533,-2.50012 -1.658634,-3.01994 -0.186934,-6.4775 1.096829,-8.70097 2.78888,-4.44665 6.593284,-6.96637 10.93456,-8.52999 4.50388,-1.64201 8.87952,-2.12468 13.19239,-1.15621 4.271519,1.39316 6.244505,3.23542 7.027738,5.42138 1.091596,2.98194 0.99311,6.00107 0.04743,9.04667 -1.274472,3.32489 -3.383935,6.40465 -8.108522,8.71666 0.769906,1.52185 1.403092,3.23079 0.979779,6.38546 -0.345076,4.05744 0.706469,5.32164 2.229845,5.64218 0.912596,0.33442 1.127488,1.77831 0.93235,2.38683 -0.202522,0.98583 -0.687592,1.31378 -1.95956,1.72306 -3.870505,0.43413 -5.695677,-1.24038 -6.067748,-4.17746 l -0.337855,-5.67597 c -0.198121,-2.71032 -0.238788,-5.57512 -3.716406,-5.06782 l -1.993344,9.22344 -1.486562,6.65575 c -0.115021,0.36124 -0.35053,1.30384 -2.804197,1.28384 -1.267366,-0.28636 -2.332031,-0.78894 -2.263629,-2.50012 l 3.243408,-14.15613 2.939338,-12.39928 c 0.828526,-3.40453 1.931681,-4.06277 3.074482,-4.32455 1.900453,-0.29384 2.81743,0.31712 2.466343,2.0947 -0.782105,2.90009 -1.497765,5.81829 -1.790632,8.85181 2.205875,0.25106 4.334455,-0.45117 6.405252,-1.86606 2.277549,-1.72197 3.087723,-3.97892 3.209623,-6.48681 -0.112813,-1.81842 -0.0054,-3.65932 -3.142054,-5.16919 -1.904287,-0.71718 -4.430812,-1.03498 -8.209878,-0.27028 -2.058588,0.64659 -3.999385,1.10177 -6.790886,2.93934 -1.998303,1.4506 -4.266974,2.92924 -4.604373,6.04351 z"
         id="path11" /><path
         style="fill:#ffffff;fill-opacity:1;stroke:#000000;stroke-width:0;stroke-dasharray:none;stroke-opacity:1"
         d="m 115.56933,156.30028 c -0.36827,-0.27689 -1.85243,-0.74432 -3.63128,0.35835 -0.6248,0.80644 -0.32228,1.20907 -0.0717,1.69618 1.34317,1.3616 3.22138,1.56222 4.80188,2.31733 2.32528,1.1217 3.08176,2.69162 3.53572,4.34798 0.1974,1.70479 -0.0952,2.94084 -0.5445,4.06584 -0.43179,1.07659 -1.12312,2.34509 -3.22652,4.02892 -0.35011,0.32552 -1.85986,1.30682 -4.70463,1.8582 -1.48855,0.3432 -3.49874,0.54439 -5.16918,0.16893 -0.86339,-0.16556 -3.80099,-1.32196 -4.22319,-3.98669 -0.0836,-2.12955 0.48849,-3.85074 1.06424,-4.98336 0.42098,-0.85997 0.94305,-1.99899 2.39032,-2.39876 2.57784,-0.58645 3.36452,0.14881 3.89379,1.16559 0.65531,1.78976 0.006,2.25496 -0.82775,2.53391 -1.59176,0.26555 -1.65573,1.69728 -1.30074,2.1116 0.70965,0.96959 2.13021,0.90326 3.61505,0.74328 1.87339,-0.44022 3.01407,-1.14213 3.31098,-2.14538 0.43094,-1.57378 0.0432,-2.39188 -0.6926,-2.88866 -2.55121,-1.40605 -4.07882,-2.31735 -5.28743,-3.07448 -1.36657,-0.82881 -2.40152,-1.97393 -2.31432,-4.18941 0.0287,-1.78339 0.5738,-3.17461 1.70617,-4.07959 0.80711,-0.71431 2.15389,-1.914 4.96648,-2.4748 1.9448,-0.34436 3.64631,-0.16158 5.18607,0.37165 1.93287,0.87433 2.03316,1.93193 2.46634,2.95623 0.40021,1.35293 0.2141,2.55928 -1.18249,3.46301 -1.69468,0.44602 -3.24714,0.71066 -3.41234,-0.79396 0.0122,-0.61521 -0.12436,-0.92362 -0.34837,-1.17191 z"
         id="path7-9" /><path
         id="path13"
         style="fill:#ffffff;fill-opacity:1;stroke:#000000;stroke-width:0;stroke-dasharray:none;stroke-opacity:1"
         d="m 60.419051,160.73386 c -2.199718,0.0124 -4.265775,0.84012 -6.159314,2.72025 -1.496681,1.55141 -2.840413,3.70171 -3.986837,6.62233 -1.363966,4.0332 -1.062887,5.41859 -1.284159,7.63519 0.02182,2.64925 1.494279,4.17609 3.480408,5.30459 2.102081,0.88811 4.364448,0.59828 6.655407,0.10128 2.565934,-0.77744 4.0768,-1.89487 4.764051,-3.27731 0.250895,-0.67985 0.70169,-1.72867 0.329179,-2.58331 -0.281163,-0.3871 -1.128887,-1.44181 -2.593124,-0.52503 -1.674856,1.35843 -3.515528,1.91769 -5.540747,1.58801 -1.973487,-0.41047 -1.864709,-1.87792 -1.824178,-3.3109 4.33422,0.26933 6.158144,-1.19674 7.973157,-2.66909 1.576189,-1.62798 3.013456,-3.35451 3.176033,-6.92619 -0.0071,-1.57422 -0.749426,-3.84506 -3.446301,-4.56097 -0.521384,-0.081 -1.035948,-0.12172 -1.543575,-0.11885 z m -1.00614,4.99246 c 0.222086,2.1e-4 0.436485,0.0366 0.646472,0.0941 0.778969,0.64316 0.593582,1.55089 -0.250631,2.63963 -0.980777,1.10044 -2.171979,2.04949 -4.288627,2.32958 0.244065,-1.36347 0.751891,-2.60247 1.600936,-3.67937 0.890571,-1.05975 1.625593,-1.38453 2.29185,-1.38389 z" /><path
         id="path15"
         style="fill:#ffffff;fill-opacity:1;stroke:#000000;stroke-width:0;stroke-dasharray:none;stroke-opacity:1"
         d="m 77.949247,157.97279 c -3.119985,0.003 -4.321628,1.31602 -5.753654,2.4722 -0.452221,-0.50655 -0.456499,-1.24453 -2.214852,-1.07694 -1.436458,0.11556 -2.110321,1.12066 -2.515608,2.17609 l -6.020305,27.33012 c -0.812899,2.90767 0.101155,3.48589 1.194759,3.82199 1.425202,0.0568 2.857286,0.13825 3.535702,-2.4846 0.637534,-3.50386 1.129149,-7.00765 2.054655,-10.51151 1.785087,1.63837 4.242152,1.98719 7.692554,0.42995 3.282123,-1.71988 5.641623,-4.19638 7.167004,-7.35769 0.923318,-2.87779 1.341132,-5.97968 0.811837,-9.84281 -0.541835,-2.04426 -1.050691,-4.10301 -4.491199,-4.8736 -0.530264,-0.0574 -1.015181,-0.0836 -1.460893,-0.0832 z m -1.560628,5.30562 c 0.293606,-2.6e-4 0.599915,0.0263 0.919324,0.0811 1.522723,0.44147 1.758388,1.83917 1.720308,3.4401 -0.325963,3.54147 -1.176796,5.02604 -2.078943,6.30711 -1.772419,2.6634 -3.166375,2.87577 -5.231722,2.79517 -1.485396,-0.27642 -1.358795,-2.21052 -1.313615,-4.06125 0.287482,-1.94253 0.536496,-3.86035 2.842721,-7.11946 0.835233,-0.93349 1.869636,-1.4417 3.141927,-1.4428 z" /><path
         id="path20"
         style="fill:#ffffff;fill-opacity:1;stroke:#000000;stroke-width:0;stroke-dasharray:none;stroke-opacity:1"
         d="m 97.572856,154.8505 c -0.423082,-0.003 -0.898657,0.0271 -1.439706,0.0997 -1.646626,0.24469 -3.324704,0.94782 -5.160408,3.96565 -2.251988,0.31197 -4.43325,1.3163 -6.306592,5.35161 -0.801238,1.66781 -1.049415,2.84344 -1.290361,4.01319 -0.84204,4.20127 1.110327,7.17896 2.155941,8.08892 1.825724,1.65761 5.551649,1.94293 8.188648,0.91777 3.570555,-1.6125 4.57409,-2.97223 5.685957,-4.3956 1.203355,-1.48319 3.871835,-6.53116 3.989425,-10.05778 0.0144,-2.8807 -0.12948,-4.58039 -2.1978,-6.73706 -0.94185,-0.58689 -1.791751,-1.23266 -3.625104,-1.24643 z m -0.679029,4.98574 c 0.36158,0.0171 0.686766,0.22609 0.84336,0.45268 0.332599,0.52823 0.62806,1.71106 0.54932,3.35639 -0.235589,2.07231 -0.822469,4.21053 -1.433504,4.32428 -1.393109,-0.17456 -2.146044,-1.45438 -2.137854,-4.04936 0.17156,-1.38706 0.378034,-2.76377 1.516703,-3.87005 0.214856,-0.16524 0.445027,-0.22423 0.661975,-0.21394 z m -6.990787,4.76663 c 0.274347,4.27617 1.55849,5.93236 3.851961,7.06107 -1.773736,1.37723 -3.520226,1.43392 -4.124296,1.05368 -0.660777,-0.4788 -1.482502,-1.52782 -1.349272,-4.12791 0.18896,-1.98523 0.987458,-2.83263 1.621607,-3.98684 z" /><path
         id="path20-2"
         style="fill:#ffffff;fill-opacity:1;stroke:#000000;stroke-width:0;stroke-dasharray:none;stroke-opacity:1"
         d="m 152.74969,146.45515 c -0.42308,-0.003 -0.89865,0.0271 -1.4397,0.0997 -1.64663,0.24469 -3.32471,0.94782 -5.16041,3.96565 -2.25199,0.31197 -4.43325,1.3163 -6.30659,5.35161 -0.80124,1.66781 -1.04942,2.84344 -1.29036,4.01319 -0.84204,4.20127 1.11032,7.17896 2.15594,8.08892 1.82572,1.65761 5.55165,1.94293 8.18864,0.91777 3.57056,-1.6125 4.57409,-2.97223 5.68596,-4.3956 1.20336,-1.48319 3.87184,-6.53116 3.98943,-10.05778 0.0144,-2.8807 -0.12948,-4.58039 -2.1978,-6.73706 -0.94185,-0.58689 -1.79175,-1.23266 -3.62511,-1.24643 z m -0.67903,4.98574 c 0.36158,0.0171 0.68677,0.22609 0.84336,0.45268 0.3326,0.52823 0.62806,1.71106 0.54932,3.35639 -0.23559,2.07231 -0.82247,4.21053 -1.4335,4.32428 -1.39311,-0.17456 -2.14604,-1.45438 -2.13785,-4.04936 0.17156,-1.38706 0.37803,-2.76377 1.5167,-3.87005 0.21485,-0.16524 0.44503,-0.22423 0.66197,-0.21394 z m -6.99078,4.76663 c 0.27434,4.27617 1.55849,5.93236 3.85196,7.06107 -1.77374,1.37723 -3.52023,1.43392 -4.1243,1.05368 -0.66078,-0.4788 -1.4825,-1.52782 -1.34927,-4.12791 0.18896,-1.98523 0.98746,-2.83263 1.62161,-3.98684 z" /><path
         style="fill:#ffffff;fill-opacity:1;stroke:#000000;stroke-width:0;stroke-dasharray:none"
         d="m 123.99281,153.3862 c -0.86755,4.3191 -1.62297,8.58215 -2.36499,12.83849 -0.81535,5.02544 1.05789,5.36306 2.63528,6.21654 1.60342,0.76267 3.8021,0.43899 4.45968,-0.54057 1.15501,-1.64453 0.67548,-3.09348 -0.33785,-3.24341 -1.49053,-0.24645 -2.10961,-1.27719 -1.68928,-3.24341 0.67571,-3.7879 1.35142,-7.26703 2.02713,-10.74379 0.29997,-1.59252 0.58962,-3.35418 -1.39171,-3.9669 -1.90253,-0.37473 -2.89979,0.38428 -3.33826,2.68305 z"
         id="path5" /><path
         style="fill:#ffffff;fill-opacity:1;stroke:#000000;stroke-width:0;stroke-dasharray:none"
         d="m 156.73097,164.97463 3.7164,-16.99411 c 0.65038,-2.13021 1.72785,-3.73476 3.54748,-4.4259 0.68364,0.0419 1.26517,0.33347 1.14871,2.3312 1.16308,-1.43559 2.07515,-1.53247 2.97312,-1.55413 1.52766,0.25386 1.66708,1.48765 1.68928,2.80419 -0.059,0.8772 -0.47387,1.80524 0.0338,2.60149 1.65,0.75254 3.28369,-0.57316 4.12184,-1.14871 1.57243,-0.29105 1.9917,0.49883 2.22984,1.45278 0.27117,0.94854 -0.33489,1.97661 -0.84464,2.60148 -2.17694,2.20486 -4.18211,2.26257 -6.18275,2.26363 -3.39427,-0.28512 -3.76143,-2.16347 -3.78397,-4.22319 -0.58286,0.90139 -1.13656,1.56958 -1.89199,3.85155 -0.85403,3.37103 -1.59972,6.95874 -2.0947,11.04786 -0.0737,1.59045 -1.22194,2.0346 -2.63527,2.19606 -1.64324,-0.009 -2.45425,-0.8146 -2.02715,-2.8042 z"
         id="path9" /></g></g></svg>
